<svg width="8" height="17" viewBox="0 0 8 17" fill="none" xmlns="http://www.w3.org/2000/svg">
<path d="M2.22555 15.54C2.23888 15.3133 2.38555 15.0533 2.66555 14.76C2.95888 14.4533 3.39221 14.2067 3.96555 14.02L4.14555 13.96C4.78555 13.7467 5.30555 13.56 5.70555 13.4C6.10555 13.24 6.30555 12.9867 6.30555 12.64C6.30555 12.3867 6.22555 12.2133 6.06555 12.12C5.90555 12.0133 5.66555 11.9533 5.34555 11.94C5.02555 11.9133 4.62555 11.9 4.14555 11.9H3.96555C3.12555 11.9 2.45888 11.8067 1.96555 11.62C1.47221 11.4333 1.22555 11.0267 1.22555 10.4C1.22555 9.81333 1.45221 9.36667 1.90555 9.06C2.35888 8.74 3.04555 8.58 3.96555 8.58H4.14555C4.55888 8.58 4.95888 8.56 5.34555 8.52C5.74555 8.46667 6.07221 8.36667 6.32555 8.22C6.59221 8.07333 6.72555 7.85333 6.72555 7.56C6.72555 7.2 6.49888 6.97333 6.04555 6.88C5.60555 6.78667 4.97221 6.74 4.14555 6.74H3.74555C3.26555 6.74 2.85221 6.74 2.50555 6.74C2.17221 6.72667 1.87888 6.7 1.62555 6.66C1.38555 6.60667 1.16555 6.52667 0.965547 6.42C0.752214 6.31333 0.572214 6.15333 0.425547 5.94C0.27888 5.71333 0.205547 5.43333 0.205547 5.1C0.205547 4.60667 0.35888 4.17333 0.665547 3.8C0.985547 3.41333 1.42555 3.11333 1.98555 2.9C2.55888 2.67333 3.21221 2.56 3.94555 2.56H4.14555C4.37221 2.56 4.62555 2.57333 4.90555 2.6C5.19888 2.61333 5.47221 2.65333 5.72555 2.72L5.08555 2.8C5.28555 2.52 5.49221 2.31333 5.70555 2.18C5.91888 2.04667 6.13221 1.98 6.34555 1.98C6.58555 1.98 6.81221 2.04 7.02555 2.16C7.25221 2.26667 7.43221 2.40667 7.56555 2.58C7.71221 2.75333 7.78555 2.93333 7.78555 3.12C7.78555 3.17333 7.78555 3.22667 7.78555 3.28C7.78555 3.33333 7.77888 3.37333 7.76555 3.4C7.68555 3.38667 7.60555 3.38 7.52555 3.38C7.44555 3.36667 7.35221 3.36 7.24555 3.36C6.93888 3.36 6.67221 3.40667 6.44555 3.5C6.59221 3.55333 6.73888 3.6 6.88555 3.64C7.03221 3.68 7.17221 3.7 7.30555 3.7C7.45221 3.7 7.57221 3.68 7.66555 3.64V3.84C7.53221 3.88 7.37221 3.91333 7.18555 3.94C6.99888 3.96667 6.78555 3.98 6.54555 3.98C6.33221 3.98 6.07888 3.94667 5.78555 3.88C5.50555 3.8 5.29221 3.64 5.14555 3.4L6.20555 3.84C5.88555 3.74667 5.53221 3.68667 5.14555 3.66C4.77221 3.62 4.43221 3.6 4.12555 3.6H3.94555C3.06555 3.6 2.40555 3.73333 1.96555 4C1.52555 4.25333 1.30555 4.59333 1.30555 5.02C1.30555 5.34 1.41888 5.54667 1.64555 5.64C1.88555 5.72 2.22555 5.76 2.66555 5.76C2.85221 5.76 3.04555 5.76 3.24555 5.76C3.45888 5.74667 3.69221 5.74 3.94555 5.74H4.14555C5.27888 5.74 6.14555 5.86 6.74555 6.1C7.35888 6.32667 7.66555 6.78 7.66555 7.46C7.66555 7.74 7.61888 8 7.52555 8.24C7.43221 8.48 7.25888 8.69333 7.00555 8.88C6.76555 9.06667 6.41221 9.21333 5.94555 9.32C5.49221 9.42667 4.89221 9.48 4.14555 9.48H3.96555C3.48555 9.48 3.11221 9.52 2.84555 9.6C2.57888 9.68 2.39221 9.78667 2.28555 9.92C2.19221 10.04 2.14555 10.18 2.14555 10.34C2.14555 10.58 2.23221 10.7533 2.40555 10.86C2.57888 10.9667 2.80555 11.0333 3.08555 11.06C3.36555 11.0867 3.65888 11.1 3.96555 11.1H4.14555C4.91888 11.1 5.51888 11.1533 5.94555 11.26C6.37221 11.3667 6.67221 11.5267 6.84555 11.74C7.03221 11.94 7.12555 12.2067 7.12555 12.54C7.12555 12.9133 7.03221 13.22 6.84555 13.46C6.67221 13.6867 6.41221 13.88 6.06555 14.04C5.81221 14.16 5.51221 14.2667 5.16555 14.36C4.83221 14.4533 4.49221 14.5533 4.14555 14.66L3.96555 14.72C3.57888 14.8533 3.25221 14.9867 2.98555 15.12C2.73221 15.24 2.47888 15.38 2.22555 15.54ZM3.76555 16.28L3.46555 1.06C3.46555 0.886666 3.51221 0.739999 3.60555 0.619999C3.71221 0.486666 3.86555 0.419999 4.06555 0.419999C4.26555 0.419999 4.41221 0.486666 4.50555 0.619999C4.61221 0.739999 4.66555 0.886666 4.66555 1.06L4.34555 16.28H3.76555ZM6.54555 2.9C6.69221 2.9 6.82555 2.83333 6.94555 2.7L6.70555 2.66C6.63888 2.63333 6.57221 2.62 6.50555 2.62C6.43888 2.60667 6.37221 2.6 6.30555 2.6C6.19888 2.6 6.11221 2.63333 6.04555 2.7C6.17888 2.83333 6.34555 2.9 6.54555 2.9Z" fill="black"/>
</svg>
